<svg xmlns="http://www.w3.org/2000/svg" width="60.12" height="59.965" viewBox="0 0 60.12 59.965"><defs><style>.a{fill:#fff;}.b{fill:#aa1e30;}.c{fill:#122619;}.d{fill:#fae404;}.e{fill:#ab1f24;}</style></defs><g transform="translate(-67.707 -66.125)"><path class="a" d="M123.269,126.09h-51a4.573,4.573,0,0,1-4.558-4.56V70.685a4.573,4.573,0,0,1,4.558-4.56h51a4.573,4.573,0,0,1,4.558,4.56V121.53a4.573,4.573,0,0,1-4.558,4.56"/><path class="b" d="M124.938,71.13a4.1,4.1,0,0,0-4.117-4.106H108.506L68.613,106.89v12.234a4.1,4.1,0,0,0,4.11,4.117l12.115,0,40.1-40.023Z" transform="translate(0.99 0.982)"/><path class="c" d="M124.931,85.738,87.349,123.251l33.464,0a4.128,4.128,0,0,0,4.114-4.1Zm-56.317,18.6L106,67.03l-33.267-.01a4.067,4.067,0,0,0-4.114,4.1Z" transform="translate(0.991 0.978)"/><path class="d" d="M78.245,97.428a23.866,23.866,0,0,1,4.114-1.205c.745-.167,5.092-1.187,4.87-5.646-.056-1.159-1.789.316-1.789.316a17.132,17.132,0,0,0-4.864,1.375,6.214,6.214,0,0,0-2.331,5.161" transform="translate(11.516 26.234)"/><path class="e" d="M86.962,90.437a3,3,0,0,0-1.289.71l-.044.038-.059.008a17.2,17.2,0,0,0-4.788,1.344,5.915,5.915,0,0,0-2.227,4.7,23.3,23.3,0,0,1,3.878-1.1c1.469-.337,4.9-1.538,4.7-5.445-.01-.251-.1-.251-.174-.251m-8.813,7.388,0-.293A6.386,6.386,0,0,1,80.579,92.2a16.772,16.772,0,0,1,4.885-1.4,3.22,3.22,0,0,1,1.5-.766c.163,0,.544.061.569.636.211,4.209-3.445,5.494-5.023,5.849a24.034,24.034,0,0,0-4.085,1.193Z" transform="translate(11.411 26.131)"/><path class="d" d="M89.474,86.788s.808,5.052-3.215,6.659c-1.714.707-4.271,1.5-4.669,1.9a5.47,5.47,0,0,1,2.055-5.621,21.049,21.049,0,0,1,4.173-1.8,3.327,3.327,0,0,0,1.655-1.138" transform="translate(15.026 22.58)"/><path class="e" d="M89.424,87.318a4.134,4.134,0,0,1-1.44.852l-.446.167a17.81,17.81,0,0,0-3.677,1.614,5.215,5.215,0,0,0-2.034,5.125,20.9,20.9,0,0,1,2.434-.986c.7-.257,1.413-.519,2.024-.774,3.148-1.256,3.219-4.761,3.139-6M81.586,95.8l-.088-.339a5.709,5.709,0,0,1,2.135-5.835,18.14,18.14,0,0,1,3.773-1.668l.444-.161a3.2,3.2,0,0,0,1.559-1.061l.36.077c.013.05.789,5.23-3.334,6.879-.619.253-1.341.517-2.038.774a13.474,13.474,0,0,0-2.566,1.086Z" transform="translate(14.926 22.524)"/><path class="d" d="M89.029,83.8a5.194,5.194,0,0,1-.3,6.571c-.6.81-3.616,2.754-4.374,3.662,0,0-1.5-3.263.308-5.916a16.706,16.706,0,0,1,2.961-2.706A6.885,6.885,0,0,0,89.029,83.8" transform="translate(17.552 19.318)"/><path class="e" d="M89.14,84.332a6.4,6.4,0,0,1-1.293,1.419A16.843,16.843,0,0,0,84.934,88.4a6.194,6.194,0,0,0-.4,5.445,23.6,23.6,0,0,1,2.017-1.634,14.975,14.975,0,0,0,2.126-1.785,5.022,5.022,0,0,0,.467-6.1m-4.73,10.25-.13-.285c-.065-.138-1.53-3.4.324-6.111a16.7,16.7,0,0,1,3.009-2.758,6.64,6.64,0,0,0,1.354-1.553l.144-.234.174.213a5.421,5.421,0,0,1-.3,6.82,14.243,14.243,0,0,1-2.2,1.86,16.919,16.919,0,0,0-2.174,1.808Z" transform="translate(17.445 19.141)"/><path class="d" d="M85.513,80.616s-2.348,1.367-.789,5.27c.151.452,1.971,3.706,2.032,4.606A5.217,5.217,0,0,0,88.7,84.37c-.205-.758-1.72-3.152-3.185-3.754" transform="translate(18.012 15.836)"/><path class="e" d="M85.635,80.958c-.387.278-1.953,1.651-.628,4.975.048.136.262.557.511,1.046a23.079,23.079,0,0,1,1.478,3.292,4.984,4.984,0,0,0,1.614-5.724,7.689,7.689,0,0,0-2.974-3.589m1.046,10-.021-.331a17.6,17.6,0,0,0-1.5-3.459c-.3-.6-.479-.95-.523-1.092-1.6-4.012.852-5.5.877-5.512l.082-.05.09.038c1.521.628,3.076,3.07,3.3,3.886a5.458,5.458,0,0,1-2.026,6.35Z" transform="translate(17.911 15.718)"/><path class="d" d="M82.047,78.069a5.326,5.326,0,0,0,1.107,4.782c.806.942,4.42,2.053,5.979,3.206,0,0,1.909-6.224-7.086-7.988" transform="translate(15.487 13.052)"/><path class="e" d="M82.3,78.42a5.193,5.193,0,0,0,1.113,4.418,10.691,10.691,0,0,0,2.863,1.572,21.382,21.382,0,0,1,2.838,1.434,5.544,5.544,0,0,0-.649-3.817c-1.046-1.764-3.122-2.98-6.165-3.606M89.348,86.5l-.224-.17a18.433,18.433,0,0,0-3.012-1.553,10.521,10.521,0,0,1-3-1.678,5.457,5.457,0,0,1-1.143-4.97l.054-.167.172.031c3.258.642,5.483,1.932,6.613,3.834a5.884,5.884,0,0,1,.626,4.407Z" transform="translate(15.38 12.933)"/><path class="d" d="M79.567,75.964s7.823.561,6.768,7.708a25.333,25.333,0,0,0-3.208-1.685c-.63-.308-3.752-1.3-3.56-4.221.05-.806,0-1.8,0-1.8" transform="translate(12.952 10.752)"/><path class="e" d="M79.877,76.3c.015.345.029,1.009-.008,1.591-.161,2.48,2.17,3.48,3.166,3.905.119.048.213.094.28.123a23.2,23.2,0,0,1,2.968,1.54,5.91,5.91,0,0,0-1.1-4.512,8.476,8.476,0,0,0-5.3-2.647m6.716,7.814-.255-.159a25.428,25.428,0,0,0-3.181-1.67c-.077-.036-.165-.075-.276-.121-.979-.421-3.585-1.536-3.407-4.3.05-.785,0-1.768,0-1.779l-.01-.224.224.017c.153.01,3.794.3,5.8,2.817a6.418,6.418,0,0,1,1.153,5.121Z" transform="translate(12.847 10.639)"/><path class="d" d="M80.606,72.972a5.1,5.1,0,0,0-1.463,5.914,8.476,8.476,0,0,0,2.568,3.068s.912-2.562,1.461-4.42c.2-.756.758-3.713-1.057-4.866a1.093,1.093,0,0,0-1.509.3" transform="translate(12.056 6.951)"/><path class="e" d="M81.593,72.791a.934.934,0,0,0-.72.4l-.044.048a4.858,4.858,0,0,0-1.4,5.682,9.211,9.211,0,0,0,2.275,2.855c.232-.668.931-2.681,1.379-4.194.038-.132.9-3.441-.971-4.633a1.07,1.07,0,0,0-.521-.155m.337,9.537-.195-.082a8.572,8.572,0,0,1-2.675-3.183,5.324,5.324,0,0,1,1.5-6.124,1.329,1.329,0,0,1,1.03-.55,1.449,1.449,0,0,1,.722.211c2.13,1.354,1.193,4.939,1.151,5.09-.55,1.844-1.457,4.414-1.465,4.439Z" transform="translate(11.954 6.845)"/><path class="d" d="M79.493,78.164s-2.258-6.624,5.828-8.419c0,0,1.808,2.553-1.153,5.211-.8.753-4.165,2.459-4.675,3.208" transform="translate(12.563 3.956)"/><path class="e" d="M85.336,70.088c-2.5.58-4.225,1.691-5.123,3.307a6.445,6.445,0,0,0-.515,4.493A19.113,19.113,0,0,1,82.1,76.281a17.3,17.3,0,0,0,2.038-1.352c2.482-2.231,1.488-4.338,1.193-4.841m-5.8,8.635-.128-.372a6.871,6.871,0,0,1,.454-5.148c.973-1.75,2.832-2.938,5.521-3.537l.128-.029.077.111c.017.025,1.873,2.731-1.182,5.477a15.52,15.52,0,0,1-2.1,1.4A12.5,12.5,0,0,0,79.761,78.4Z" transform="translate(12.457 3.837)"/><path class="d" d="M89.569,67.337s-8.388-.193-8.036,7.308c0,0,5.253-1.611,6.67-3.168a6.031,6.031,0,0,0,1.367-4.14" transform="translate(15.097 1.324)"/><path class="e" d="M89.482,67.644c-.787.017-4.1.222-6.1,2.329a6.124,6.124,0,0,0-1.557,4.506c1.049-.339,5.142-1.724,6.333-3.035a5.828,5.828,0,0,0,1.323-3.8m-8.03,7.373-.013-.259A6.611,6.611,0,0,1,83.1,69.7c2.252-2.386,6.086-2.455,6.515-2.455l.249.006.008.182a6.265,6.265,0,0,1-1.415,4.284c-1.444,1.58-6.546,3.158-6.764,3.227Z" transform="translate(14.994 1.221)"/></g></svg>